<?xml version="1.0" encoding="UTF-8" standalone="no"?>
<!DOCTYPE svg PUBLIC "-//W3C//DTD SVG 1.1//EN" "http://www.w3.org/Graphics/SVG/1.1/DTD/svg11.dtd">
<svg width="100%" height="100%" viewBox="0 0 800 300" version="1.1" xmlns="http://www.w3.org/2000/svg" xmlns:xlink="http://www.w3.org/1999/xlink" xml:space="preserve" xmlns:serif="http://www.serif.com/" style="fill-rule:evenodd;clip-rule:evenodd;stroke-linejoin:round;stroke-miterlimit:2;">
    <g transform="matrix(0.878156,0,0,0.961538,9.659715,11.538462)">
        <rect x="-11" y="-12" width="911" height="312" style="fill:white;"/>
    </g>
    <g transform="matrix(9.085774,0,0,9.085774,-368.116288,-151.612747)">
        <g transform="matrix(15.415145,0,0,15.415145,50,39.534938)">
            <path d="M0.224,-0L-0.005,-0.534L0.125,-0.534L0.322,-0.063L0.258,-0.063L0.462,-0.534L0.582,-0.534L0.353,-0L0.224,-0Z" style="fill:rgb(88,87,7);fill-rule:nonzero;"/>
        </g>
        <g transform="matrix(15.415145,0,0,15.415145,59.446824,39.534938)">
            <path d="M0.308,0.007C0.257,0.007 0.211,-0.005 0.17,-0.028C0.129,-0.05 0.097,-0.082 0.073,-0.123C0.05,-0.164 0.038,-0.212 0.038,-0.267C0.038,-0.322 0.05,-0.37 0.073,-0.411C0.097,-0.452 0.129,-0.484 0.17,-0.506C0.211,-0.529 0.257,-0.54 0.308,-0.54C0.353,-0.54 0.393,-0.531 0.428,-0.511C0.463,-0.491 0.491,-0.461 0.512,-0.421C0.533,-0.381 0.543,-0.329 0.543,-0.267C0.543,-0.205 0.533,-0.154 0.513,-0.113C0.493,-0.073 0.465,-0.043 0.43,-0.023C0.395,-0.003 0.354,0.007 0.308,0.007ZM0.323,-0.1C0.353,-0.1 0.38,-0.107 0.404,-0.12C0.428,-0.134 0.447,-0.153 0.461,-0.178C0.475,-0.204 0.482,-0.233 0.482,-0.267C0.482,-0.301 0.475,-0.331 0.461,-0.356C0.447,-0.381 0.428,-0.4 0.404,-0.414C0.38,-0.427 0.353,-0.434 0.323,-0.434C0.293,-0.434 0.266,-0.427 0.242,-0.414C0.219,-0.4 0.2,-0.381 0.186,-0.356C0.171,-0.331 0.164,-0.301 0.164,-0.267C0.164,-0.233 0.171,-0.204 0.186,-0.178C0.2,-0.153 0.219,-0.134 0.242,-0.12C0.266,-0.107 0.293,-0.1 0.323,-0.1ZM0.485,-0L0.485,-0.126L0.489,-0.268L0.48,-0.41L0.48,-0.742L0.605,-0.742L0.605,-0L0.485,-0Z" style="fill:rgb(88,87,7);fill-rule:nonzero;"/>
        </g>
        <g transform="matrix(15.415145,0,0,15.415145,70.8034,39.534938)">
            <path d="M0.247,0.007C0.203,0.007 0.16,0.001 0.119,-0.011C0.078,-0.022 0.045,-0.036 0.021,-0.053L0.069,-0.148C0.093,-0.132 0.122,-0.12 0.155,-0.11C0.188,-0.1 0.222,-0.095 0.255,-0.095C0.295,-0.095 0.323,-0.1 0.341,-0.111C0.358,-0.121 0.367,-0.136 0.367,-0.154C0.367,-0.169 0.361,-0.18 0.349,-0.188C0.337,-0.195 0.321,-0.201 0.302,-0.205C0.282,-0.209 0.261,-0.213 0.237,-0.216C0.214,-0.219 0.19,-0.224 0.167,-0.23C0.143,-0.235 0.122,-0.244 0.102,-0.254C0.083,-0.265 0.067,-0.28 0.055,-0.299C0.043,-0.318 0.037,-0.343 0.037,-0.373C0.037,-0.407 0.047,-0.436 0.066,-0.461C0.085,-0.486 0.112,-0.506 0.147,-0.52C0.182,-0.534 0.224,-0.54 0.272,-0.54C0.308,-0.54 0.344,-0.536 0.381,-0.528C0.418,-0.52 0.448,-0.508 0.472,-0.494L0.424,-0.399C0.399,-0.414 0.374,-0.425 0.348,-0.43C0.322,-0.436 0.296,-0.439 0.271,-0.439C0.233,-0.439 0.205,-0.433 0.187,-0.422C0.168,-0.411 0.159,-0.396 0.159,-0.379C0.159,-0.363 0.165,-0.351 0.177,-0.343C0.189,-0.335 0.205,-0.329 0.224,-0.324C0.244,-0.32 0.265,-0.316 0.289,-0.312C0.312,-0.309 0.336,-0.305 0.359,-0.299C0.383,-0.293 0.404,-0.285 0.424,-0.274C0.443,-0.264 0.459,-0.249 0.471,-0.231C0.483,-0.212 0.489,-0.188 0.489,-0.158C0.489,-0.124 0.479,-0.095 0.459,-0.071C0.44,-0.046 0.412,-0.027 0.376,-0.014C0.34,-0 0.297,0.007 0.247,0.007Z" style="fill:rgb(88,87,7);fill-rule:nonzero;"/>
        </g>
        <g transform="matrix(15.415145,0,0,15.415145,79.51867,39.534938)">
            <path d="M0.265,0.005C0.216,0.005 0.178,-0.009 0.151,-0.035C0.124,-0.062 0.111,-0.1 0.111,-0.148L0.111,-0.641L0.182,-0.641L0.182,-0.152C0.182,-0.121 0.19,-0.097 0.205,-0.081C0.221,-0.064 0.243,-0.056 0.273,-0.056C0.304,-0.056 0.33,-0.065 0.351,-0.083L0.376,-0.032C0.362,-0.019 0.345,-0.01 0.326,-0.004C0.306,0.002 0.286,0.005 0.265,0.005ZM0.017,-0.466L0.017,-0.525L0.342,-0.525L0.342,-0.466L0.017,-0.466Z" style="fill:rgb(192,202,51);fill-rule:nonzero;"/>
        </g>
        <g transform="matrix(15.415145,0,0,15.415145,86.248395,39.534938)">
            <path d="M0.314,0.005C0.262,0.005 0.217,-0.007 0.176,-0.03C0.136,-0.053 0.104,-0.084 0.081,-0.125C0.058,-0.165 0.046,-0.211 0.046,-0.263C0.046,-0.315 0.058,-0.362 0.081,-0.402C0.105,-0.442 0.136,-0.473 0.176,-0.496C0.216,-0.519 0.262,-0.53 0.314,-0.53C0.365,-0.53 0.411,-0.519 0.451,-0.496C0.492,-0.473 0.523,-0.442 0.546,-0.402C0.569,-0.362 0.581,-0.316 0.581,-0.263C0.581,-0.211 0.569,-0.165 0.546,-0.125C0.523,-0.084 0.492,-0.053 0.451,-0.03C0.411,-0.007 0.365,0.005 0.314,0.005ZM0.314,-0.058C0.351,-0.058 0.385,-0.066 0.414,-0.084C0.444,-0.101 0.467,-0.125 0.484,-0.156C0.501,-0.187 0.509,-0.222 0.509,-0.263C0.509,-0.304 0.501,-0.34 0.484,-0.371C0.467,-0.401 0.444,-0.425 0.414,-0.442C0.385,-0.459 0.351,-0.468 0.314,-0.468C0.276,-0.468 0.243,-0.459 0.214,-0.442C0.184,-0.425 0.161,-0.401 0.144,-0.371C0.126,-0.34 0.118,-0.304 0.118,-0.263C0.118,-0.222 0.126,-0.187 0.144,-0.156C0.161,-0.125 0.184,-0.101 0.214,-0.084C0.243,-0.066 0.276,-0.058 0.314,-0.058Z" style="fill:rgb(192,202,51);fill-rule:nonzero;"/>
        </g>
        <g transform="matrix(15.415145,0,0,15.415145,96.684436,39.534938)">
            <path d="M0.314,0.005C0.262,0.005 0.217,-0.007 0.176,-0.03C0.136,-0.053 0.104,-0.084 0.081,-0.125C0.058,-0.165 0.046,-0.211 0.046,-0.263C0.046,-0.315 0.058,-0.362 0.081,-0.402C0.105,-0.442 0.136,-0.473 0.176,-0.496C0.216,-0.519 0.262,-0.53 0.314,-0.53C0.365,-0.53 0.411,-0.519 0.451,-0.496C0.492,-0.473 0.523,-0.442 0.546,-0.402C0.569,-0.362 0.581,-0.316 0.581,-0.263C0.581,-0.211 0.569,-0.165 0.546,-0.125C0.523,-0.084 0.492,-0.053 0.451,-0.03C0.411,-0.007 0.365,0.005 0.314,0.005ZM0.314,-0.058C0.351,-0.058 0.385,-0.066 0.414,-0.084C0.444,-0.101 0.467,-0.125 0.484,-0.156C0.501,-0.187 0.509,-0.222 0.509,-0.263C0.509,-0.304 0.501,-0.34 0.484,-0.371C0.467,-0.401 0.444,-0.425 0.414,-0.442C0.385,-0.459 0.351,-0.468 0.314,-0.468C0.276,-0.468 0.243,-0.459 0.214,-0.442C0.184,-0.425 0.161,-0.401 0.144,-0.371C0.126,-0.34 0.118,-0.304 0.118,-0.263C0.118,-0.222 0.126,-0.187 0.144,-0.156C0.161,-0.125 0.184,-0.101 0.214,-0.084C0.243,-0.066 0.276,-0.058 0.314,-0.058Z" style="fill:rgb(192,202,51);fill-rule:nonzero;"/>
        </g>
        <g transform="matrix(15.415145,0,0,15.415145,107.120476,39.534938)">
            <rect x="0.099" y="-0.742" width="0.071" height="0.742" style="fill:rgb(192,202,51);"/>
        </g>
        <g transform="matrix(15.415145,0,0,15.415145,112.042004,39.534938)">
            <path d="M0.24,0.005C0.197,0.005 0.156,-0.001 0.117,-0.014C0.078,-0.026 0.048,-0.042 0.026,-0.06L0.058,-0.116C0.079,-0.1 0.106,-0.086 0.14,-0.074C0.173,-0.063 0.208,-0.057 0.245,-0.057C0.295,-0.057 0.331,-0.065 0.353,-0.08C0.375,-0.096 0.386,-0.117 0.386,-0.143C0.386,-0.162 0.38,-0.177 0.368,-0.188C0.355,-0.199 0.339,-0.208 0.319,-0.213C0.299,-0.219 0.276,-0.224 0.252,-0.228C0.228,-0.232 0.203,-0.237 0.179,-0.242C0.154,-0.248 0.132,-0.256 0.112,-0.266C0.092,-0.276 0.075,-0.29 0.063,-0.308C0.051,-0.326 0.045,-0.35 0.045,-0.38C0.045,-0.409 0.053,-0.434 0.069,-0.457C0.085,-0.48 0.109,-0.498 0.14,-0.511C0.171,-0.524 0.209,-0.53 0.253,-0.53C0.287,-0.53 0.321,-0.526 0.355,-0.517C0.389,-0.508 0.417,-0.496 0.439,-0.481L0.408,-0.424C0.385,-0.44 0.36,-0.452 0.333,-0.458C0.307,-0.465 0.28,-0.469 0.253,-0.469C0.206,-0.469 0.171,-0.461 0.149,-0.444C0.127,-0.428 0.116,-0.407 0.116,-0.382C0.116,-0.362 0.122,-0.346 0.134,-0.335C0.146,-0.323 0.162,-0.314 0.183,-0.308C0.203,-0.302 0.225,-0.297 0.25,-0.293C0.274,-0.289 0.298,-0.284 0.323,-0.279C0.347,-0.273 0.369,-0.265 0.389,-0.256C0.41,-0.246 0.426,-0.232 0.438,-0.214C0.45,-0.197 0.457,-0.174 0.457,-0.145C0.457,-0.114 0.448,-0.088 0.431,-0.066C0.414,-0.043 0.389,-0.026 0.357,-0.014C0.325,-0.001 0.286,0.005 0.24,0.005Z" style="fill:rgb(192,202,51);fill-rule:nonzero;"/>
        </g>
    </g>
    <g transform="matrix(1.314523,0,0,1.314523,23.826341,188.038599)">
        <g transform="matrix(0.99,0,0,1,0.670356,0)">
            <g transform="matrix(39.863842,0,0,39.863842,67.035609,54.578971)">
                <path d="M0.238,-0L0.003,-0.522L0.056,-0.522L0.276,-0.028L0.252,-0.028L0.474,-0.522L0.525,-0.522L0.289,-0L0.238,-0Z" style="fill:rgb(88,87,7);fill-rule:nonzero;"/>
            </g>
            <g transform="matrix(39.863842,0,0,39.863842,88.043853,54.578971)">
                <path d="M0.106,-0L0.106,-0.522L0.156,-0.522L0.156,-0L0.106,-0ZM0.131,-0.649C0.12,-0.649 0.11,-0.653 0.102,-0.661C0.094,-0.669 0.09,-0.678 0.09,-0.689C0.09,-0.7 0.094,-0.71 0.102,-0.718C0.11,-0.726 0.12,-0.73 0.131,-0.73C0.143,-0.73 0.153,-0.726 0.161,-0.719C0.168,-0.711 0.172,-0.701 0.172,-0.69C0.172,-0.679 0.168,-0.669 0.161,-0.661C0.153,-0.653 0.143,-0.649 0.131,-0.649Z" style="fill:rgb(88,87,7);fill-rule:nonzero;"/>
            </g>
            <g transform="matrix(39.863842,0,0,39.863842,98.42174,54.578971)">
                <path d="M0.238,0.004C0.195,0.004 0.154,-0.002 0.117,-0.015C0.079,-0.028 0.049,-0.044 0.029,-0.063L0.052,-0.103C0.072,-0.086 0.099,-0.071 0.132,-0.059C0.166,-0.046 0.202,-0.04 0.24,-0.04C0.295,-0.04 0.334,-0.049 0.358,-0.067C0.382,-0.085 0.394,-0.109 0.394,-0.138C0.394,-0.16 0.388,-0.176 0.376,-0.189C0.363,-0.201 0.347,-0.211 0.326,-0.217C0.306,-0.224 0.283,-0.229 0.258,-0.233C0.233,-0.238 0.209,-0.242 0.184,-0.248C0.159,-0.253 0.136,-0.261 0.116,-0.271C0.095,-0.281 0.079,-0.295 0.066,-0.312C0.054,-0.33 0.048,-0.353 0.048,-0.383C0.048,-0.409 0.055,-0.433 0.07,-0.455C0.085,-0.477 0.107,-0.494 0.136,-0.507C0.165,-0.52 0.202,-0.526 0.246,-0.526C0.279,-0.526 0.312,-0.521 0.345,-0.512C0.378,-0.503 0.405,-0.491 0.425,-0.475L0.402,-0.435C0.38,-0.452 0.355,-0.463 0.328,-0.471C0.301,-0.478 0.273,-0.482 0.245,-0.482C0.194,-0.482 0.157,-0.473 0.134,-0.454C0.11,-0.435 0.098,-0.412 0.098,-0.384C0.098,-0.362 0.104,-0.344 0.117,-0.331C0.129,-0.318 0.146,-0.308 0.166,-0.301C0.187,-0.294 0.209,-0.289 0.234,-0.285C0.259,-0.28 0.284,-0.276 0.308,-0.27C0.333,-0.265 0.355,-0.257 0.376,-0.247C0.396,-0.238 0.413,-0.225 0.425,-0.208C0.438,-0.191 0.444,-0.168 0.444,-0.139C0.444,-0.111 0.436,-0.086 0.42,-0.064C0.405,-0.042 0.381,-0.026 0.351,-0.014C0.32,-0.002 0.283,0.004 0.238,0.004Z" style="fill:rgb(88,87,7);fill-rule:nonzero;"/>
            </g>
            <g transform="matrix(39.863842,0,0,39.863842,117.436793,54.578971)">
                <path d="M0.106,-0L0.106,-0.522L0.156,-0.522L0.156,-0L0.106,-0ZM0.131,-0.649C0.12,-0.649 0.11,-0.653 0.102,-0.661C0.094,-0.669 0.09,-0.678 0.09,-0.689C0.09,-0.7 0.094,-0.71 0.102,-0.718C0.11,-0.726 0.12,-0.73 0.131,-0.73C0.143,-0.73 0.153,-0.726 0.161,-0.719C0.168,-0.711 0.172,-0.701 0.172,-0.69C0.172,-0.679 0.168,-0.669 0.161,-0.661C0.153,-0.653 0.143,-0.649 0.131,-0.649Z" style="fill:rgb(88,87,7);fill-rule:nonzero;"/>
            </g>
            <g transform="matrix(39.863842,0,0,39.863842,127.81468,54.578971)">
                <path d="M0.368,0.004C0.322,0.004 0.28,-0.007 0.243,-0.028C0.206,-0.05 0.177,-0.08 0.155,-0.12C0.134,-0.16 0.123,-0.207 0.123,-0.261C0.123,-0.316 0.134,-0.363 0.156,-0.403C0.177,-0.442 0.207,-0.472 0.244,-0.494C0.281,-0.515 0.322,-0.526 0.368,-0.526C0.417,-0.526 0.461,-0.515 0.5,-0.492C0.539,-0.47 0.57,-0.439 0.592,-0.399C0.615,-0.36 0.626,-0.314 0.626,-0.261C0.626,-0.209 0.615,-0.163 0.592,-0.123C0.57,-0.083 0.539,-0.052 0.5,-0.03C0.461,-0.007 0.417,0.004 0.368,0.004ZM0.106,-0L0.106,-0.742L0.156,-0.742L0.156,-0.353L0.146,-0.262L0.154,-0.171L0.154,-0L0.106,-0ZM0.365,-0.041C0.405,-0.041 0.441,-0.05 0.473,-0.069C0.505,-0.087 0.53,-0.113 0.548,-0.146C0.567,-0.18 0.576,-0.218 0.576,-0.261C0.576,-0.305 0.567,-0.344 0.548,-0.377C0.53,-0.41 0.505,-0.435 0.473,-0.454C0.441,-0.472 0.405,-0.481 0.365,-0.481C0.325,-0.481 0.289,-0.472 0.258,-0.454C0.226,-0.435 0.201,-0.41 0.182,-0.377C0.164,-0.344 0.155,-0.305 0.155,-0.261C0.155,-0.218 0.164,-0.18 0.182,-0.146C0.201,-0.113 0.226,-0.087 0.258,-0.069C0.289,-0.05 0.325,-0.041 0.365,-0.041Z" style="fill:rgb(88,87,7);fill-rule:nonzero;"/>
            </g>
            <g transform="matrix(39.863842,0,0,39.863842,154.696197,54.578971)">
                <rect x="0.106" y="-0.742" width="0.05" height="0.742" style="fill:rgb(88,87,7);"/>
            </g>
            <g transform="matrix(39.863842,0,0,39.863842,165.074084,54.578971)">
                <path d="M0.318,0.004C0.265,0.004 0.219,-0.007 0.178,-0.03C0.138,-0.053 0.107,-0.084 0.084,-0.124C0.061,-0.164 0.049,-0.21 0.049,-0.261C0.049,-0.313 0.06,-0.359 0.082,-0.399C0.103,-0.438 0.133,-0.469 0.171,-0.492C0.209,-0.515 0.251,-0.526 0.299,-0.526C0.347,-0.526 0.389,-0.515 0.427,-0.493C0.464,-0.471 0.494,-0.44 0.515,-0.4C0.537,-0.361 0.548,-0.315 0.548,-0.263C0.548,-0.261 0.548,-0.259 0.547,-0.257L0.547,-0.249L0.086,-0.249L0.086,-0.288L0.52,-0.288L0.5,-0.269C0.501,-0.31 0.492,-0.346 0.474,-0.379C0.457,-0.411 0.433,-0.436 0.403,-0.455C0.373,-0.473 0.338,-0.482 0.299,-0.482C0.26,-0.482 0.226,-0.473 0.195,-0.455C0.165,-0.436 0.141,-0.411 0.124,-0.379C0.107,-0.346 0.098,-0.309 0.098,-0.268L0.098,-0.259C0.098,-0.217 0.107,-0.179 0.126,-0.146C0.145,-0.113 0.171,-0.087 0.205,-0.069C0.238,-0.05 0.276,-0.041 0.319,-0.041C0.352,-0.041 0.384,-0.047 0.413,-0.059C0.442,-0.071 0.466,-0.09 0.486,-0.114L0.515,-0.081C0.492,-0.053 0.464,-0.032 0.429,-0.018C0.395,-0.003 0.358,0.004 0.318,0.004Z" style="fill:rgb(88,87,7);fill-rule:nonzero;"/>
            </g>
            <g transform="matrix(39.863842,0,0,39.863842,199.051365,54.578971)">
                <path d="M0.307,0.004C0.258,0.004 0.214,-0.007 0.175,-0.03C0.136,-0.052 0.105,-0.083 0.083,-0.123C0.061,-0.163 0.049,-0.209 0.049,-0.261C0.049,-0.314 0.061,-0.36 0.083,-0.399C0.105,-0.439 0.136,-0.47 0.175,-0.492C0.214,-0.515 0.258,-0.526 0.307,-0.526C0.353,-0.526 0.395,-0.515 0.432,-0.494C0.469,-0.472 0.498,-0.442 0.519,-0.403C0.541,-0.363 0.552,-0.316 0.552,-0.261C0.552,-0.207 0.541,-0.16 0.52,-0.12C0.498,-0.08 0.469,-0.05 0.432,-0.028C0.395,-0.007 0.354,0.004 0.307,0.004ZM0.31,-0.041C0.35,-0.041 0.386,-0.05 0.418,-0.069C0.449,-0.087 0.474,-0.113 0.493,-0.146C0.511,-0.18 0.52,-0.218 0.52,-0.261C0.52,-0.305 0.511,-0.344 0.493,-0.377C0.474,-0.41 0.449,-0.435 0.418,-0.454C0.386,-0.472 0.35,-0.481 0.31,-0.481C0.27,-0.481 0.234,-0.472 0.203,-0.454C0.171,-0.435 0.146,-0.41 0.128,-0.377C0.109,-0.344 0.1,-0.305 0.1,-0.261C0.1,-0.218 0.109,-0.18 0.128,-0.146C0.146,-0.113 0.171,-0.087 0.203,-0.069C0.234,-0.05 0.27,-0.041 0.31,-0.041ZM0.521,-0L0.521,-0.171L0.53,-0.262L0.52,-0.353L0.52,-0.742L0.57,-0.742L0.57,-0L0.521,-0Z" style="fill:rgb(88,87,7);fill-rule:nonzero;"/>
            </g>
            <g transform="matrix(39.863842,0,0,39.863842,225.932883,54.578971)">
                <path d="M0.106,-0L0.106,-0.522L0.156,-0.522L0.156,-0L0.106,-0ZM0.131,-0.649C0.12,-0.649 0.11,-0.653 0.102,-0.661C0.094,-0.669 0.09,-0.678 0.09,-0.689C0.09,-0.7 0.094,-0.71 0.102,-0.718C0.11,-0.726 0.12,-0.73 0.131,-0.73C0.143,-0.73 0.153,-0.726 0.161,-0.719C0.168,-0.711 0.172,-0.701 0.172,-0.69C0.172,-0.679 0.168,-0.669 0.161,-0.661C0.153,-0.653 0.143,-0.649 0.131,-0.649Z" style="fill:rgb(88,87,7);fill-rule:nonzero;"/>
            </g>
            <g transform="matrix(39.863842,0,0,39.863842,236.31077,54.578971)">
                <path d="M0.323,0.198C0.276,0.198 0.231,0.191 0.188,0.176C0.145,0.162 0.111,0.141 0.084,0.115L0.111,0.077C0.137,0.101 0.168,0.12 0.205,0.133C0.241,0.147 0.28,0.153 0.322,0.153C0.392,0.153 0.443,0.137 0.477,0.104C0.51,0.071 0.526,0.02 0.526,-0.05L0.526,-0.195L0.536,-0.273L0.528,-0.351L0.528,-0.522L0.576,-0.522L0.576,-0.056C0.576,0.031 0.555,0.095 0.513,0.136C0.47,0.177 0.407,0.198 0.323,0.198ZM0.309,-0.019C0.26,-0.019 0.216,-0.03 0.176,-0.052C0.137,-0.073 0.106,-0.103 0.084,-0.141C0.061,-0.18 0.049,-0.223 0.049,-0.273C0.049,-0.323 0.061,-0.367 0.084,-0.405C0.106,-0.443 0.137,-0.473 0.176,-0.494C0.216,-0.515 0.26,-0.526 0.309,-0.526C0.357,-0.526 0.399,-0.516 0.436,-0.496C0.474,-0.475 0.504,-0.446 0.526,-0.409C0.548,-0.371 0.559,-0.326 0.559,-0.273C0.559,-0.221 0.548,-0.176 0.526,-0.138C0.504,-0.1 0.474,-0.07 0.436,-0.05C0.399,-0.029 0.357,-0.019 0.309,-0.019ZM0.313,-0.064C0.355,-0.064 0.392,-0.073 0.424,-0.09C0.456,-0.108 0.481,-0.133 0.499,-0.164C0.518,-0.196 0.527,-0.232 0.527,-0.273C0.527,-0.314 0.518,-0.351 0.499,-0.382C0.481,-0.413 0.456,-0.437 0.424,-0.455C0.392,-0.473 0.355,-0.481 0.313,-0.481C0.272,-0.481 0.236,-0.473 0.204,-0.455C0.171,-0.437 0.146,-0.413 0.127,-0.382C0.109,-0.351 0.1,-0.314 0.1,-0.273C0.1,-0.232 0.109,-0.196 0.127,-0.164C0.146,-0.133 0.171,-0.108 0.204,-0.09C0.236,-0.073 0.272,-0.064 0.313,-0.064Z" style="fill:rgb(88,87,7);fill-rule:nonzero;"/>
            </g>
            <g transform="matrix(39.863842,0,0,39.863842,263.458046,54.578971)">
                <path d="M0.106,-0L0.106,-0.522L0.156,-0.522L0.156,-0L0.106,-0ZM0.131,-0.649C0.12,-0.649 0.11,-0.653 0.102,-0.661C0.094,-0.669 0.09,-0.678 0.09,-0.689C0.09,-0.7 0.094,-0.71 0.102,-0.718C0.11,-0.726 0.12,-0.73 0.131,-0.73C0.143,-0.73 0.153,-0.726 0.161,-0.719C0.168,-0.711 0.172,-0.701 0.172,-0.69C0.172,-0.679 0.168,-0.669 0.161,-0.661C0.153,-0.653 0.143,-0.649 0.131,-0.649Z" style="fill:rgb(88,87,7);fill-rule:nonzero;"/>
            </g>
            <g transform="matrix(39.863842,0,0,39.863842,273.312468,54.578971)">
                <path d="M0.258,0.004C0.212,0.004 0.177,-0.009 0.153,-0.034C0.128,-0.059 0.116,-0.094 0.116,-0.138L0.116,-0.636L0.166,-0.636L0.166,-0.143C0.166,-0.109 0.174,-0.084 0.191,-0.066C0.207,-0.048 0.231,-0.039 0.263,-0.039C0.296,-0.039 0.323,-0.049 0.344,-0.068L0.365,-0.033C0.352,-0.02 0.336,-0.011 0.317,-0.005C0.297,0.001 0.278,0.004 0.258,0.004ZM0.02,-0.479L0.02,-0.522L0.332,-0.522L0.332,-0.479L0.02,-0.479Z" style="fill:rgb(88,87,7);fill-rule:nonzero;"/>
            </g>
            <g transform="matrix(39.863842,0,0,39.863842,288.346371,54.578971)">
                <path d="M0.435,-0L0.435,-0.119L0.433,-0.137L0.433,-0.333C0.433,-0.381 0.42,-0.418 0.394,-0.444C0.367,-0.469 0.329,-0.482 0.278,-0.482C0.242,-0.482 0.208,-0.476 0.177,-0.464C0.146,-0.451 0.12,-0.435 0.098,-0.416L0.073,-0.452C0.099,-0.475 0.13,-0.493 0.167,-0.506C0.203,-0.519 0.242,-0.526 0.282,-0.526C0.347,-0.526 0.396,-0.51 0.431,-0.477C0.466,-0.445 0.483,-0.396 0.483,-0.331L0.483,-0L0.435,-0ZM0.247,0.004C0.208,0.004 0.175,-0.002 0.146,-0.015C0.118,-0.027 0.097,-0.045 0.082,-0.067C0.067,-0.09 0.059,-0.116 0.059,-0.145C0.059,-0.172 0.065,-0.196 0.078,-0.217C0.09,-0.239 0.111,-0.257 0.139,-0.271C0.167,-0.284 0.206,-0.291 0.254,-0.291L0.446,-0.291L0.446,-0.252L0.255,-0.252C0.201,-0.252 0.163,-0.242 0.141,-0.222C0.12,-0.202 0.109,-0.177 0.109,-0.147C0.109,-0.114 0.121,-0.087 0.147,-0.067C0.173,-0.047 0.208,-0.037 0.254,-0.037C0.298,-0.037 0.335,-0.047 0.366,-0.067C0.396,-0.087 0.418,-0.116 0.433,-0.154L0.447,-0.12C0.433,-0.082 0.409,-0.052 0.376,-0.03C0.342,-0.007 0.299,0.004 0.247,0.004Z" style="fill:rgb(88,87,7);fill-rule:nonzero;"/>
            </g>
            <g transform="matrix(39.863842,0,0,39.863842,311.560415,54.578971)">
                <rect x="0.106" y="-0.742" width="0.05" height="0.742" style="fill:rgb(88,87,7);"/>
            </g>
            <g transform="matrix(39.863842,0,0,39.863842,332.156734,54.578971)">
                <path d="M0.238,0.004C0.195,0.004 0.154,-0.002 0.117,-0.015C0.079,-0.028 0.049,-0.044 0.029,-0.063L0.052,-0.103C0.072,-0.086 0.099,-0.071 0.132,-0.059C0.166,-0.046 0.202,-0.04 0.24,-0.04C0.295,-0.04 0.334,-0.049 0.358,-0.067C0.382,-0.085 0.394,-0.109 0.394,-0.138C0.394,-0.16 0.388,-0.176 0.376,-0.189C0.363,-0.201 0.347,-0.211 0.326,-0.217C0.306,-0.224 0.283,-0.229 0.258,-0.233C0.233,-0.238 0.209,-0.242 0.184,-0.248C0.159,-0.253 0.136,-0.261 0.116,-0.271C0.095,-0.281 0.079,-0.295 0.066,-0.312C0.054,-0.33 0.048,-0.353 0.048,-0.383C0.048,-0.409 0.055,-0.433 0.07,-0.455C0.085,-0.477 0.107,-0.494 0.136,-0.507C0.165,-0.52 0.202,-0.526 0.246,-0.526C0.279,-0.526 0.312,-0.521 0.345,-0.512C0.378,-0.503 0.405,-0.491 0.425,-0.475L0.402,-0.435C0.38,-0.452 0.355,-0.463 0.328,-0.471C0.301,-0.478 0.273,-0.482 0.245,-0.482C0.194,-0.482 0.157,-0.473 0.134,-0.454C0.11,-0.435 0.098,-0.412 0.098,-0.384C0.098,-0.362 0.104,-0.344 0.117,-0.331C0.129,-0.318 0.146,-0.308 0.166,-0.301C0.187,-0.294 0.209,-0.289 0.234,-0.285C0.259,-0.28 0.284,-0.276 0.308,-0.27C0.333,-0.265 0.355,-0.257 0.376,-0.247C0.396,-0.238 0.413,-0.225 0.425,-0.208C0.438,-0.191 0.444,-0.168 0.444,-0.139C0.444,-0.111 0.436,-0.086 0.42,-0.064C0.405,-0.042 0.381,-0.026 0.351,-0.014C0.32,-0.002 0.283,0.004 0.238,0.004Z" style="fill:rgb(88,87,7);fill-rule:nonzero;"/>
            </g>
            <g transform="matrix(39.863842,0,0,39.863842,351.171786,54.578971)">
                <path d="M0.318,0.004C0.265,0.004 0.219,-0.007 0.178,-0.03C0.138,-0.053 0.107,-0.084 0.084,-0.124C0.061,-0.164 0.049,-0.21 0.049,-0.261C0.049,-0.313 0.06,-0.359 0.082,-0.399C0.103,-0.438 0.133,-0.469 0.171,-0.492C0.209,-0.515 0.251,-0.526 0.299,-0.526C0.347,-0.526 0.389,-0.515 0.427,-0.493C0.464,-0.471 0.494,-0.44 0.515,-0.4C0.537,-0.361 0.548,-0.315 0.548,-0.263C0.548,-0.261 0.548,-0.259 0.547,-0.257L0.547,-0.249L0.086,-0.249L0.086,-0.288L0.52,-0.288L0.5,-0.269C0.501,-0.31 0.492,-0.346 0.474,-0.379C0.457,-0.411 0.433,-0.436 0.403,-0.455C0.373,-0.473 0.338,-0.482 0.299,-0.482C0.26,-0.482 0.226,-0.473 0.195,-0.455C0.165,-0.436 0.141,-0.411 0.124,-0.379C0.107,-0.346 0.098,-0.309 0.098,-0.268L0.098,-0.259C0.098,-0.217 0.107,-0.179 0.126,-0.146C0.145,-0.113 0.171,-0.087 0.205,-0.069C0.238,-0.05 0.276,-0.041 0.319,-0.041C0.352,-0.041 0.384,-0.047 0.413,-0.059C0.442,-0.071 0.466,-0.09 0.486,-0.114L0.515,-0.081C0.492,-0.053 0.464,-0.032 0.429,-0.018C0.395,-0.003 0.358,0.004 0.318,0.004Z" style="fill:rgb(88,87,7);fill-rule:nonzero;"/>
            </g>
            <g transform="matrix(39.863842,0,0,39.863842,374.326638,54.578971)">
                <path d="M0.435,-0L0.435,-0.119L0.433,-0.137L0.433,-0.333C0.433,-0.381 0.42,-0.418 0.394,-0.444C0.367,-0.469 0.329,-0.482 0.278,-0.482C0.242,-0.482 0.208,-0.476 0.177,-0.464C0.146,-0.451 0.12,-0.435 0.098,-0.416L0.073,-0.452C0.099,-0.475 0.13,-0.493 0.167,-0.506C0.203,-0.519 0.242,-0.526 0.282,-0.526C0.347,-0.526 0.396,-0.51 0.431,-0.477C0.466,-0.445 0.483,-0.396 0.483,-0.331L0.483,-0L0.435,-0ZM0.247,0.004C0.208,0.004 0.175,-0.002 0.146,-0.015C0.118,-0.027 0.097,-0.045 0.082,-0.067C0.067,-0.09 0.059,-0.116 0.059,-0.145C0.059,-0.172 0.065,-0.196 0.078,-0.217C0.09,-0.239 0.111,-0.257 0.139,-0.271C0.167,-0.284 0.206,-0.291 0.254,-0.291L0.446,-0.291L0.446,-0.252L0.255,-0.252C0.201,-0.252 0.163,-0.242 0.141,-0.222C0.12,-0.202 0.109,-0.177 0.109,-0.147C0.109,-0.114 0.121,-0.087 0.147,-0.067C0.173,-0.047 0.208,-0.037 0.254,-0.037C0.298,-0.037 0.335,-0.047 0.366,-0.067C0.396,-0.087 0.418,-0.116 0.433,-0.154L0.447,-0.12C0.433,-0.082 0.409,-0.052 0.376,-0.03C0.342,-0.007 0.299,0.004 0.247,0.004Z" style="fill:rgb(88,87,7);fill-rule:nonzero;"/>
            </g>
            <g transform="matrix(39.863842,0,0,39.863842,397.540682,54.578971)">
                <rect x="0.106" y="-0.742" width="0.05" height="0.742" style="fill:rgb(88,87,7);"/>
            </g>
            <g transform="matrix(39.863842,0,0,39.863842,418.137001,54.578971)">
                <path d="M0.258,0.004C0.212,0.004 0.177,-0.009 0.153,-0.034C0.128,-0.059 0.116,-0.094 0.116,-0.138L0.116,-0.636L0.166,-0.636L0.166,-0.143C0.166,-0.109 0.174,-0.084 0.191,-0.066C0.207,-0.048 0.231,-0.039 0.263,-0.039C0.296,-0.039 0.323,-0.049 0.344,-0.068L0.365,-0.033C0.352,-0.02 0.336,-0.011 0.317,-0.005C0.297,0.001 0.278,0.004 0.258,0.004ZM0.02,-0.479L0.02,-0.522L0.332,-0.522L0.332,-0.479L0.02,-0.479Z" style="fill:rgb(88,87,7);fill-rule:nonzero;"/>
            </g>
            <g transform="matrix(39.863842,0,0,39.863842,433.21117,54.578971)">
                <path d="M0.31,0.004C0.26,0.004 0.216,-0.007 0.176,-0.03C0.137,-0.053 0.106,-0.084 0.084,-0.124C0.061,-0.164 0.049,-0.21 0.049,-0.261C0.049,-0.313 0.061,-0.359 0.084,-0.399C0.106,-0.438 0.137,-0.469 0.176,-0.492C0.215,-0.515 0.26,-0.526 0.31,-0.526C0.36,-0.526 0.405,-0.515 0.444,-0.492C0.484,-0.469 0.514,-0.438 0.537,-0.399C0.559,-0.359 0.571,-0.313 0.571,-0.261C0.571,-0.21 0.559,-0.164 0.537,-0.124C0.515,-0.084 0.484,-0.053 0.444,-0.03C0.405,-0.007 0.36,0.004 0.31,0.004ZM0.31,-0.041C0.35,-0.041 0.386,-0.05 0.418,-0.069C0.45,-0.087 0.475,-0.113 0.493,-0.146C0.511,-0.18 0.52,-0.218 0.52,-0.261C0.52,-0.305 0.511,-0.344 0.493,-0.377C0.475,-0.41 0.45,-0.435 0.418,-0.454C0.386,-0.472 0.35,-0.481 0.31,-0.481C0.27,-0.481 0.234,-0.472 0.203,-0.454C0.171,-0.435 0.146,-0.41 0.128,-0.377C0.109,-0.344 0.1,-0.305 0.1,-0.261C0.1,-0.218 0.109,-0.18 0.128,-0.146C0.146,-0.113 0.171,-0.087 0.203,-0.069C0.234,-0.05 0.27,-0.041 0.31,-0.041Z" style="fill:rgb(88,87,7);fill-rule:nonzero;"/>
            </g>
            <g transform="matrix(39.863842,0,0,39.863842,457.886889,54.578971)">
                <path d="M0.31,0.004C0.26,0.004 0.216,-0.007 0.176,-0.03C0.137,-0.053 0.106,-0.084 0.084,-0.124C0.061,-0.164 0.049,-0.21 0.049,-0.261C0.049,-0.313 0.061,-0.359 0.084,-0.399C0.106,-0.438 0.137,-0.469 0.176,-0.492C0.215,-0.515 0.26,-0.526 0.31,-0.526C0.36,-0.526 0.405,-0.515 0.444,-0.492C0.484,-0.469 0.514,-0.438 0.537,-0.399C0.559,-0.359 0.571,-0.313 0.571,-0.261C0.571,-0.21 0.559,-0.164 0.537,-0.124C0.515,-0.084 0.484,-0.053 0.444,-0.03C0.405,-0.007 0.36,0.004 0.31,0.004ZM0.31,-0.041C0.35,-0.041 0.386,-0.05 0.418,-0.069C0.45,-0.087 0.475,-0.113 0.493,-0.146C0.511,-0.18 0.52,-0.218 0.52,-0.261C0.52,-0.305 0.511,-0.344 0.493,-0.377C0.475,-0.41 0.45,-0.435 0.418,-0.454C0.386,-0.472 0.35,-0.481 0.31,-0.481C0.27,-0.481 0.234,-0.472 0.203,-0.454C0.171,-0.435 0.146,-0.41 0.128,-0.377C0.109,-0.344 0.1,-0.305 0.1,-0.261C0.1,-0.218 0.109,-0.18 0.128,-0.146C0.146,-0.113 0.171,-0.087 0.203,-0.069C0.234,-0.05 0.27,-0.041 0.31,-0.041Z" style="fill:rgb(88,87,7);fill-rule:nonzero;"/>
            </g>
            <g transform="matrix(39.863842,0,0,39.863842,482.562607,54.578971)">
                <path d="M0.144,-0.144L0.145,-0.207L0.49,-0.522L0.554,-0.522L0.325,-0.307L0.295,-0.282L0.144,-0.144ZM0.106,-0L0.106,-0.742L0.156,-0.742L0.156,-0L0.106,-0ZM0.514,-0L0.286,-0.286L0.32,-0.323L0.576,-0L0.514,-0Z" style="fill:rgb(88,87,7);fill-rule:nonzero;"/>
            </g>
            <g transform="matrix(39.863842,0,0,39.863842,505.763363,54.578971)">
                <path d="M0.106,-0L0.106,-0.522L0.156,-0.522L0.156,-0L0.106,-0ZM0.131,-0.649C0.12,-0.649 0.11,-0.653 0.102,-0.661C0.094,-0.669 0.09,-0.678 0.09,-0.689C0.09,-0.7 0.094,-0.71 0.102,-0.718C0.11,-0.726 0.12,-0.73 0.131,-0.73C0.143,-0.73 0.153,-0.726 0.161,-0.719C0.168,-0.711 0.172,-0.701 0.172,-0.69C0.172,-0.679 0.168,-0.669 0.161,-0.661C0.153,-0.653 0.143,-0.649 0.131,-0.649Z" style="fill:rgb(88,87,7);fill-rule:nonzero;"/>
            </g>
            <g transform="matrix(39.863842,0,0,39.863842,515.617785,54.578971)">
                <path d="M0.258,0.004C0.212,0.004 0.177,-0.009 0.153,-0.034C0.128,-0.059 0.116,-0.094 0.116,-0.138L0.116,-0.636L0.166,-0.636L0.166,-0.143C0.166,-0.109 0.174,-0.084 0.191,-0.066C0.207,-0.048 0.231,-0.039 0.263,-0.039C0.296,-0.039 0.323,-0.049 0.344,-0.068L0.365,-0.033C0.352,-0.02 0.336,-0.011 0.317,-0.005C0.297,0.001 0.278,0.004 0.258,0.004ZM0.02,-0.479L0.02,-0.522L0.332,-0.522L0.332,-0.479L0.02,-0.479Z" style="fill:rgb(88,87,7);fill-rule:nonzero;"/>
            </g>
        </g>
    </g>
    <g transform="matrix(1.257646,0,0,1.257646,85.979867,103.826561)">
        <path d="M24.963,82.633L-0.506,23.171L13.888,23.171L35.881,75.622L28.765,75.622L87.165,-58.829L87.197,-27.829L39.289,82.633L24.963,82.633Z" style="fill:rgb(88,87,7);fill-rule:nonzero;"/>
    </g>
</svg>
